<svg xmlns="http://www.w3.org/2000/svg" viewBox="0 0 128 128"><defs><style>.cls-1{fill:#a0aec0;}</style></defs><title>Vegetarian</title><g id="Vegetarian"><path class="cls-1" d="M114,38.26V61l5,3v41a4,4,0,0,0,8,0V15A27.31,27.31,0,0,0,114,38.26Z"/><path class="cls-1" d="M23,17.11a2,2,0,0,0-3.41-1.52c-.84.81-.59.17-.59,18.75a2.52,2.52,0,0,1-4.27,1.93c-1-1-.73-.72-.73-19.16a2,2,0,0,0-3.41-1.52c-.84.81-.59.17-.59,18.75a2.52,2.52,0,0,1-4.27,1.93c-1-1-.73-.72-.73-19.16a2,2,0,0,0-3.41-1.52C.77,16.4,1,15.48,1,37a10,10,0,0,0,7,9.52V105a4,4,0,0,0,8,0V46.52A10,10,0,0,0,23,37Z"/><path class="cls-1" d="M74.78,49.77c1.84-1.73,4.48-4,4.82-4.32a22.94,22.94,0,0,0-27.71.42,14.12,14.12,0,0,1,4.48,3c8.73,8.83,6.86,18,5.86,23-.14.75,2,3.68,3.65,11.78A43.3,43.3,0,0,1,68,75.54C67.88,65,66.75,57.33,74.78,49.77Z"/><path class="cls-1" d="M81.78,46.18c-8.64,7.88-12.19,9.13-11.88,25,6.27-12,16.45-14.7,18.76-26.37a1,1,0,0,1,2,.38c-2.44,12.4-12.82,15.3-18.88,26.86,6.2-2.53,18.08-.49,22.72-13.88C98.71,45.91,93.29,38,90.28,34.76A29.67,29.67,0,0,1,81.78,46.18Z"/><path class="cls-1" d="M59.52,71.07A49.67,49.67,0,0,0,47.69,55.28a1,1,0,1,1,1.24-1.56A51,51,0,0,1,60.72,69c.82-4.94,1-11.88-5.77-18.75C50.69,46,43.18,45.54,37.19,46.73c4.35,4,4.92,7.13,5.89,12.48C44.25,65.69,47.72,70.39,59.52,71.07Z"/><path class="cls-1" d="M69.92,76.32a1.67,1.67,0,0,1-.2.35A45.79,45.79,0,0,0,67.45,87a23.07,23.07,0,0,0,21-17.76C80.86,73.81,71.41,71.82,69.92,76.32Z"/><path class="cls-1" d="M43.07,65.41A23.12,23.12,0,0,0,64.44,86.94a53.11,53.11,0,0,0-4-13.83C51.68,72.8,45.94,70.26,43.07,65.41Z"/><path class="cls-1" d="M66,21a43,43,0,1,0,43,43A43,43,0,0,0,66,21ZM90.76,67.49A25,25,0,0,1,67.26,89Q67,91.78,67,95a1,1,0,0,1-2,0,53.43,53.43,0,0,0-.33-6A25.12,25.12,0,0,1,41,64a30.1,30.1,0,0,1,.24-3.6C40.09,53.85,39.72,51.23,34.4,47a1,1,0,0,1,.37-1.75,28.31,28.31,0,0,1,14.94-.17,24.93,24.93,0,0,1,31.4-1A27.37,27.37,0,0,0,89,32.64a1,1,0,0,1,1.61-.38C101.73,42.42,99,60.33,90.76,67.49Z"/></g></svg>